<?xml version="1.0" encoding="utf-8"?>
<!-- Generator: Adobe Illustrator 26.0.1, SVG Export Plug-In . SVG Version: 6.00 Build 0)  -->
<svg version="1.1" id="Logo_SAIAR" xmlns="http://www.w3.org/2000/svg" xmlns:xlink="http://www.w3.org/1999/xlink" x="0px" y="0px"
	 viewBox="0 0 354.41 218.66" style="enable-background:new 0 0 354.41 218.66;" xml:space="preserve">
<style type="text/css">
	.st0{fill:#FFFFFF;}
	.st1{fill:#7C7C7B;}
	.st2{fill:#EA5B1B;}
</style>
<g>
	<path class="st0" d="M172.5,106.37c-20.64,0-37.49-16.05-38.86-36.35c-0.18-1.35-0.26-2.59-0.26-3.66c0-4.48,1.05-8.97,2.88-13.31
		c1.23-3.12,2.86-6.03,4.81-8.69c1.99-2.88,4.28-5.61,6.8-8.13c8.48-8.48,24.1-20.98,24.1-20.98h0.72c0,0,15.61,12.49,24.1,20.98
		c1.17,1.17,2.29,2.39,3.36,3.65c7.01,7.05,11.35,16.76,11.35,27.49C211.49,88.91,194.03,106.37,172.5,106.37z"/>
	<g>
		<g>
			<path class="st1" d="M205.75,34.95c-1.28-1.51-2.63-2.98-4.04-4.39c-10.2-10.2-28.97-25.22-28.97-25.22h-0.87
				c0,0-18.77,15.02-28.97,25.22c-3.03,3.03-5.79,6.32-8.18,9.77c-2.35,3.2-4.3,6.7-5.79,10.45c-2.2,5.22-3.46,10.62-3.46,16.01
				c0,1.29,0.1,2.78,0.32,4.4c1.65,24.4,21.91,43.7,46.72,43.7c25.89,0,46.88-20.99,46.88-46.88
				C219.39,55.1,214.18,43.42,205.75,34.95z M172.5,106.37c-20.64,0-37.49-16.05-38.86-36.35c-0.18-1.35-0.26-2.59-0.26-3.66
				c0-4.48,1.05-8.97,2.88-13.31c1.23-3.12,2.86-6.03,4.81-8.69c1.99-2.88,4.28-5.61,6.8-8.13c8.48-8.48,24.1-20.98,24.1-20.98h0.72
				c0,0,15.61,12.49,24.1,20.98c1.17,1.17,2.29,2.39,3.36,3.65c7.01,7.05,11.35,16.76,11.35,27.49
				C211.49,88.91,194.03,106.37,172.5,106.37z"/>
			<g>
				<path class="st2" d="M208.57,67.34c0-9.93-4.01-18.92-10.5-25.44c-0.99-1.16-2.02-2.29-3.11-3.38
					c-7.85-7.85-22.3-19.41-22.3-19.41h-0.34c-0.52,1.7-1.24,7.43,8.01,16.9c11.18,11.44,22.94,20.57,17.53,37.2
					c0,0-2.48,9.88-11.83,16.94c0,0,3.91-9.56-6.49-20.89c-10.4-11.33-21.5-17.97-21.2-31.59c0.08-3.81,1.23-6.98,2.84-9.58
					c-3.97,3.4-8.28,7.23-11.48,10.43c-2.33,2.33-4.45,4.86-6.29,7.52c-1.81,2.46-3.31,5.16-4.45,8.04
					c-1.69,4.02-2.66,8.18-2.66,12.32c0,0.99,0.08,2.14,0.24,3.39c1.27,18.78,16.86,33.63,35.96,33.63c0.28,0,0.55-0.01,0.82-0.02
					c0.29-2.99-0.24-8.38-5.76-14.39c-8.4-9.14-17.35-14.51-17.11-25.5c0.15-6.89,4.61-11.19,7.92-13.45
					c1.83,2.82,4.18,5.8,7.31,9.27c0.72,0.9,1.55,1.84,2.53,2.84c9.03,9.24,18.52,16.61,14.15,30.03c0,0-1.47,5.82-6.61,11.07
					C194.14,101.62,208.57,86.17,208.57,67.34z"/>
			</g>
			<g>
				<path class="st1" d="M50.28,167l-16.46-4.84c-3.2-0.95-5.48-2-6.78-3.14c-1.23-1.08-1.85-2.87-1.85-5.31
					c0-1.64,0.19-2.93,0.57-3.83c0.36-0.85,0.96-1.47,1.83-1.9c0.92-0.45,2.16-0.74,3.68-0.84c1.59-0.11,3.55-0.17,5.84-0.17
					c4.59,0,9.42,0.04,14.35,0.11c4.87,0.08,9.11,0.15,12.74,0.22l0.52,0.01l1.35-12.37l-0.47-0.13c-4.71-1.28-9.62-2.14-14.58-2.55
					c-11.6-0.96-21.27-0.77-28.29,0.29c-4.06,0.61-7.43,1.74-10,3.34c-2.61,1.63-4.56,3.93-5.79,6.84
					c-1.22,2.87-1.84,6.63-1.84,11.19c0,5.88,1.41,10.69,4.2,14.3c2.78,3.6,7.53,6.54,14.14,8.75l17.35,5.41
					c2.01,0.51,3.61,1.08,4.76,1.69c1.08,0.58,1.87,1.36,2.35,2.34c0.49,1,0.75,2.38,0.75,4.08c0,1.98-0.34,3.5-1.02,4.52
					c-0.65,0.99-1.84,1.66-3.53,2c-1.8,0.37-4.37,0.55-7.62,0.55c-1.98,0-4.22-0.02-6.67-0.06c-2.54-0.04-5.55-0.11-9.21-0.22
					c-3.55-0.11-7.82-0.21-12.69-0.28l-0.53-0.01L6.06,210.2l0.51,0.1c6.67,1.35,12.69,2.2,17.9,2.54
					c5.19,0.34,9.24,0.51,12.04,0.51c5.86,0,10.89-0.36,14.95-1.08c4.1-0.72,7.46-1.94,9.99-3.63c2.56-1.71,4.47-4.1,5.66-7.13
					c1.18-2.98,1.77-6.76,1.77-11.24c0-5.95-1.37-10.83-4.07-14.51C62.11,172.08,57.22,169.13,50.28,167z"/>
				<path class="st1" d="M126.86,134.46c-1.29-0.89-2.79-1.34-4.47-1.34h-17.94c-1.68,0-3.18,0.45-4.47,1.34
					c-1.3,0.9-2.19,2.1-2.63,3.55l-25.13,73.88h20.65l6.26-20.48h28.57l6.26,20.48h20.53l-25-73.87
					C129.04,136.56,128.16,135.36,126.86,134.46z M103.44,177.33l7-22.87c0.41-1.28,0.77-2.6,1.07-3.93
					c0.25-1.15,0.49-2.25,0.71-3.32h2.41c0.23,1.09,0.49,2.21,0.78,3.33c0.33,1.31,0.66,2.61,1,3.91l7,22.88H103.44z"/>
				<rect x="161.91" y="133.12" class="st1" width="19.96" height="78.77"/>
				<path class="st1" d="M243.8,134.46c-1.29-0.89-2.79-1.34-4.47-1.34h-17.94c-1.68,0-3.18,0.45-4.47,1.34
					c-1.3,0.9-2.19,2.1-2.63,3.55l-25.13,73.88h20.65l6.26-20.48h28.57l6.26,20.48h20.53l-25-73.87
					C245.99,136.56,245.1,135.36,243.8,134.46z M220.38,177.33l7-22.87c0.41-1.28,0.77-2.6,1.07-3.93c0.25-1.15,0.49-2.25,0.71-3.32
					h2.41c0.23,1.09,0.49,2.21,0.78,3.33c0.33,1.31,0.66,2.61,1,3.91l7,22.88H220.38z"/>
				<path class="st1" d="M340.37,186.99c-0.68-2.78-1.76-5.03-3.22-6.71c-1.44-1.66-3.02-2.93-4.69-3.79
					c-1.08-0.55-2.15-0.98-3.19-1.28c3.44-0.54,6.26-1.56,8.39-3.03c2.48-1.71,4.28-4.01,5.35-6.85c1.05-2.79,1.58-6.06,1.58-9.71
					c0-6.01-1.13-10.79-3.37-14.21c-2.25-3.44-5.82-5.9-10.59-7.32c-4.7-1.4-10.89-2.11-18.42-2.11c-5.05,0-9.46,0.02-13.12,0.06
					c-3.64,0.04-7.02,0.13-10.05,0.28c-3.05,0.15-6.34,0.42-9.78,0.79h-0.54v0.06l-0.08,0.01l0.08,0.55v78.15h19.83v-30.42
					c3.56,0.03,7.8,0.04,12.92,0.04c2.43,0,4.34,0.46,5.68,1.36c1.32,0.89,2.35,2.57,3.05,4.97l6.68,24.04h21.14L340.37,186.99z
					 M323.27,150.09c0.74,1.53,1.12,3.77,1.12,6.67c0,2.83-0.38,5.05-1.12,6.62c-0.72,1.52-1.95,2.54-3.75,3.13
					c-1.87,0.62-4.45,0.93-7.68,0.93h-13.29v-21.31c3.99-0.03,8.44-0.05,13.29-0.05c3.22,0,5.8,0.31,7.68,0.93
					C321.33,147.6,322.55,148.61,323.27,150.09z"/>
			</g>
		</g>
	</g>
</g>
</svg>
