<svg width="160" height="230" viewBox="0 0 160 230" fill="none" xmlns="http://www.w3.org/2000/svg">
<path d="M97.5784 0C97.5784 0 23.3441 47.09 44.8528 96.6222C44.8528 96.6222 49.3613 109.965 62.8929 120.17L79.2814 131.508C79.2814 131.508 97.4072 143.54 104.173 160.026C104.173 160.026 116.273 183.986 84.4016 230C84.4016 230 159.847 181.92 146.842 131.163C146.842 131.163 144.064 108.839 117.007 94.1862C89.9501 79.5333 87.2645 62.9241 87.2645 62.9241C87.2645 62.9241 77.8499 40.1634 97.5784 0Z" fill="#9F3737"/>
<path d="M27.6816 54.681C27.6816 54.681 -1.97541 77.2695 0.104501 111.798C2.18441 146.327 39.427 163.496 39.427 163.496C39.427 163.496 85.7845 186.096 72.0816 226.906C72.0816 226.906 115.594 189.91 54.0231 144.211C54.0231 144.211 50.3343 141.381 46.2846 138.785C28.1404 127.146 5.84872 106.686 27.6816 54.681Z" fill="#AC3B3B"/>
</svg>
