<svg width="966" height="230" viewBox="0 0 966 230" fill="none" xmlns="http://www.w3.org/2000/svg">
<path d="M97.5784 0C97.5784 0 23.3441 47.09 44.8528 96.6222C44.8528 96.6222 49.3613 109.965 62.8929 120.17L79.2814 131.508C79.2814 131.508 97.4072 143.54 104.173 160.026C104.173 160.026 116.273 183.986 84.4016 230C84.4016 230 159.847 181.92 146.842 131.163C146.842 131.163 144.064 108.839 117.007 94.1862C89.9501 79.5333 87.2645 62.9241 87.2645 62.9241C87.2645 62.9241 77.8499 40.1634 97.5784 0Z" fill="#9F3737"/>
<path d="M27.6816 54.681C27.6816 54.681 -1.97541 77.2695 0.104501 111.798C2.18441 146.327 39.427 163.496 39.427 163.496C39.427 163.496 85.7845 186.096 72.0816 226.906C72.0816 226.906 115.594 189.91 54.0231 144.211C54.0231 144.211 50.3343 141.381 46.2846 138.785C28.1404 127.146 5.84872 106.686 27.6816 54.681Z" fill="#AC3B3B"/>
<path d="M259.499 135.203V147.205H202.02V70.1322H257.969V82.1338H216.255V102.169H253.259V113.95H216.255V135.197H259.499V135.203Z" fill="#9F3737"/>
<path d="M274.064 65.508H287.749V147.2H274.064V65.508Z" fill="#9F3737"/>
<path d="M389.566 107.787H403.031V138.501C399.091 141.657 394.491 144.081 389.236 145.766C383.981 147.452 378.579 148.301 373.031 148.301C365.219 148.301 358.178 146.597 351.901 143.183C345.625 139.769 340.694 135.057 337.122 129.034C333.543 123.018 331.757 116.227 331.757 108.666C331.757 101.106 333.543 94.3149 337.122 88.2987C340.694 82.2825 345.643 77.5642 351.957 74.1501C358.27 70.736 365.366 69.032 373.251 69.032C379.674 69.032 385.51 70.0962 390.771 72.2247C396.026 74.3531 400.443 77.472 404.022 81.5812L395.041 90.3902C389.199 84.5216 382.158 81.5812 373.912 81.5812C368.51 81.5812 363.708 82.7192 359.518 84.9953C355.321 87.2714 352.036 90.464 349.663 94.5732C347.289 98.6825 346.102 103.382 346.102 108.666C346.102 113.803 347.289 118.429 349.663 122.538C352.036 126.647 355.315 129.877 359.518 132.227C363.714 134.577 368.48 135.752 373.808 135.752C379.791 135.752 385.045 134.429 389.572 131.79V107.787H389.566Z" fill="#9F3737"/>
<path d="M462.536 93.9721C467.1 98.1183 469.381 104.374 469.381 112.74V147.201H456.461V140.047C454.779 142.619 452.393 144.581 449.292 145.94C446.19 147.3 442.446 147.977 438.073 147.977C433.699 147.977 429.863 147.226 426.578 145.719C423.293 144.218 420.754 142.126 418.968 139.444C417.176 136.768 416.282 133.736 416.282 130.358C416.282 125.074 418.234 120.836 422.143 117.643C426.046 114.451 432.2 112.851 440.593 112.851H455.703V111.972C455.703 107.862 454.479 104.707 452.039 102.504C449.592 100.302 445.964 99.2009 441.143 99.2009C437.858 99.2009 434.628 99.7177 431.454 100.745C428.279 101.772 425.593 103.206 423.403 105.039L418.038 95.0179C421.103 92.668 424.786 90.8717 429.098 89.623C433.405 88.3742 437.969 87.7529 442.783 87.7529C451.39 87.7529 457.979 89.826 462.536 93.9721ZM450.057 135.587C452.718 134.012 454.602 131.755 455.697 128.814V121.986H441.572C433.686 121.986 429.747 124.595 429.747 129.805C429.747 132.302 430.732 134.283 432.702 135.753C434.671 137.224 437.412 137.956 440.911 137.956C444.343 137.956 447.389 137.168 450.057 135.587Z" fill="#9F3737"/>
<path d="M491.062 146.1C486.535 144.851 482.92 143.276 480.222 141.363L485.477 130.905C488.107 132.665 491.264 134.08 494.946 135.144C498.629 136.208 502.263 136.737 505.841 136.737C514.014 136.737 518.101 134.572 518.101 130.241C518.101 128.186 517.061 126.753 514.981 125.947C512.901 125.141 509.561 124.372 504.961 123.634C500.146 122.902 496.219 122.059 493.191 121.1C490.163 120.146 487.532 118.479 485.305 116.092C483.079 113.706 481.965 110.384 481.965 106.127C481.965 100.547 484.284 96.0938 488.921 92.7535C493.552 89.4132 499.816 87.7461 507.695 87.7461C511.708 87.7461 515.721 88.2075 519.74 89.124C523.753 90.0406 527.038 91.2709 529.595 92.815L524.34 103.273C519.379 100.338 513.794 98.8681 507.591 98.8681C503.578 98.8681 500.532 99.4709 498.452 100.683C496.372 101.895 495.332 103.488 495.332 105.475C495.332 107.677 496.445 109.24 498.672 110.156C500.899 111.073 504.349 111.934 509.016 112.746C513.684 113.478 517.52 114.327 520.511 115.28C523.502 116.234 526.078 117.852 528.231 120.128C530.384 122.404 531.461 125.633 531.461 129.816C531.461 135.322 529.088 139.727 524.347 143.03C519.599 146.333 513.14 147.982 504.967 147.982C500.22 147.976 495.583 147.348 491.062 146.1Z" fill="#9F3737"/>
<path d="M543.937 76.3526C542.254 74.7778 541.416 72.8093 541.416 70.4594C541.416 68.1096 542.254 66.1472 543.937 64.5663C545.613 62.9915 547.693 62.1979 550.176 62.1979C552.654 62.1979 554.734 62.9484 556.416 64.4556C558.092 65.9627 558.937 67.8512 558.937 70.1273C558.937 72.551 558.117 74.5871 556.471 76.2358C554.826 77.8844 552.727 78.7148 550.176 78.7148C547.699 78.721 545.619 77.9336 543.937 76.3526ZM543.282 88.4096H556.967V147.2H543.282V88.4096Z" fill="#9F3737"/>
<path d="M590.033 85.3277V88.8526H606.128V99.8638H590.473V147.206H576.789V99.8638H567.154V88.8526H576.789V85.1063C576.789 78.7948 578.612 73.8243 582.264 70.1888C585.916 66.5532 591.061 64.7385 597.704 64.7385C602.959 64.7385 607.082 65.8027 610.073 67.9312L606.244 78.2781C603.907 76.6664 601.387 75.8544 598.689 75.8544C592.914 75.8605 590.033 79.0163 590.033 85.3277ZM624.737 76.3526C623.055 74.7778 622.216 72.8093 622.216 70.4595C622.216 68.1096 623.055 66.1472 624.737 64.5663C626.413 62.9915 628.493 62.1979 630.977 62.1979C633.454 62.1979 635.54 62.9484 637.216 64.4556C638.892 65.9627 639.737 67.8512 639.737 70.1273C639.737 72.551 638.917 74.5871 637.271 76.2358C635.632 77.8844 633.534 78.7148 630.977 78.7148C628.499 78.721 626.419 77.9336 624.737 76.3526ZM624.082 88.4096H637.767V147.2H624.082V88.4096Z" fill="#9F3737"/>
<path d="M666.233 144.119C661.413 141.554 657.657 137.974 654.959 133.385C652.255 128.802 650.909 123.604 650.909 117.809C650.909 112.015 652.261 106.835 654.959 102.283C657.657 97.7307 661.4 94.1751 666.178 91.6038C670.956 89.0386 676.413 87.7529 682.548 87.7529C688.311 87.7529 693.37 88.9279 697.713 91.2777C702.057 93.6276 705.323 97.0048 707.513 101.409L697.004 107.573C695.321 104.86 693.229 102.824 690.709 101.465C688.188 100.105 685.436 99.4285 682.444 99.4285C677.336 99.4285 673.103 101.102 669.745 104.436C666.386 107.776 664.71 112.236 664.71 117.815C664.71 123.395 666.368 127.855 669.689 131.189C673.011 134.529 677.263 136.196 682.444 136.196C685.436 136.196 688.195 135.52 690.709 134.16C693.229 132.801 695.327 130.764 697.004 128.052L707.513 134.216C705.25 138.62 701.946 142.016 697.603 144.402C693.26 146.789 688.244 147.983 682.548 147.983C676.486 147.977 671.054 146.691 666.233 144.119Z" fill="#9F3737"/>
<path d="M761.429 93.9721C765.993 98.1183 768.274 104.374 768.274 112.74V147.201H755.355V140.047C753.672 142.619 751.286 144.581 748.185 145.94C745.083 147.3 741.34 147.977 736.966 147.977C732.586 147.977 728.756 147.226 725.471 145.719C722.186 144.218 719.647 142.126 717.861 139.444C716.069 136.768 715.176 133.736 715.176 130.358C715.176 125.074 717.127 120.836 721.036 117.643C724.939 114.451 731.093 112.851 739.486 112.851H754.596V111.972C754.596 107.862 753.372 104.707 750.932 102.504C748.485 100.302 744.857 99.2009 740.037 99.2009C736.752 99.2009 733.522 99.7177 730.347 100.745C727.172 101.772 724.486 103.206 722.296 105.039L716.931 95.0179C719.996 92.668 723.679 90.8717 727.991 89.623C732.298 88.3742 736.862 87.7529 741.676 87.7529C750.277 87.7529 756.865 89.826 761.429 93.9721ZM748.95 135.587C751.611 134.012 753.495 131.755 754.59 128.814V121.986H740.465C732.58 121.986 728.64 124.595 728.64 129.805C728.64 132.302 729.625 134.283 731.595 135.753C733.564 137.224 736.305 137.956 739.804 137.956C743.236 137.956 746.282 137.168 748.95 135.587Z" fill="#9F3737"/>
<path d="M843.596 65.508V147.2H830.456V139.603C828.193 142.39 825.403 144.488 822.081 145.878C818.76 147.274 815.089 147.969 811.076 147.969C805.454 147.969 800.401 146.721 795.911 144.229C791.421 141.738 787.898 138.195 785.347 133.606C782.79 129.023 781.517 123.751 781.517 117.808C781.517 111.866 782.796 106.619 785.347 102.067C787.898 97.5145 791.421 93.9958 795.911 91.4983C800.401 89.0069 805.454 87.752 811.076 87.752C814.943 87.752 818.484 88.4102 821.696 89.7328C824.908 91.0554 827.642 93.0362 829.906 95.6752V65.508H843.596V65.508ZM821.586 133.938C824.216 132.437 826.296 130.29 827.826 127.497C829.361 124.71 830.126 121.481 830.126 117.808C830.126 114.136 829.361 110.913 827.826 108.12C826.29 105.333 824.21 103.186 821.586 101.679C818.962 100.178 816.001 99.4215 812.716 99.4215C809.431 99.4215 806.476 100.178 803.846 101.679C801.221 103.186 799.135 105.333 797.606 108.12C796.07 110.913 795.306 114.136 795.306 117.808C795.306 121.481 796.07 124.71 797.606 127.497C799.141 130.29 801.221 132.437 803.846 133.938C806.476 135.445 809.431 136.195 812.716 136.195C816.007 136.195 818.962 135.439 821.586 133.938Z" fill="#9F3737"/>
<path d="M871.839 144.119C867.092 141.554 863.391 137.974 860.724 133.385C858.057 128.802 856.729 123.604 856.729 117.809C856.729 112.015 858.063 106.835 860.724 102.283C863.385 97.7307 867.092 94.1751 871.839 91.6038C876.58 89.0386 881.915 87.7529 887.824 87.7529C893.807 87.7529 899.172 89.0386 903.919 91.6038C908.666 94.1751 912.367 97.7307 915.034 102.283C917.695 106.835 919.029 112.008 919.029 117.809C919.029 123.61 917.695 128.802 915.034 133.385C912.367 137.974 908.666 141.554 903.919 144.119C899.172 146.691 893.807 147.97 887.824 147.97C881.915 147.976 876.586 146.691 871.839 144.119ZM900.31 131.127C903.595 127.75 905.234 123.309 905.234 117.803C905.234 112.298 903.595 107.856 900.31 104.479C897.025 101.102 892.865 99.4162 887.83 99.4162C882.795 99.4162 878.648 101.108 875.406 104.479C872.157 107.856 870.53 112.298 870.53 117.803C870.53 123.309 872.151 127.75 875.406 131.127C878.654 134.505 882.795 136.19 887.83 136.19C892.865 136.196 897.025 134.505 900.31 131.127Z" fill="#9F3737"/>
<path d="M965.999 87.7529V100.856C964.831 100.634 963.773 100.524 962.824 100.524C957.496 100.524 953.336 102.086 950.345 105.205C947.353 108.324 945.855 112.82 945.855 118.689V147.201H932.17V88.4111H945.2V96.9987C949.14 90.8348 956.071 87.7529 965.999 87.7529Z" fill="#9F3737"/>
</svg>
